<?xml version="1.0" encoding="UTF-8"?>
<svg version="1.1" xmlns="http://www.w3.org/2000/svg" width="1200" height="1383">
<path d="M0 0 C81.04064573 -1.75531384 159.4607435 24.89981488 219.51708984 80.03515625 C221.83710936 82.15705692 221.83710936 82.15705692 224.59521484 84.21484375 C225.68962891 85.13716797 225.68962891 85.13716797 226.80615234 86.078125 C226.80615234 86.738125 226.80615234 87.398125 226.80615234 88.078125 C227.38751953 88.33335937 227.96888672 88.58859375 228.56787109 88.8515625 C231.03430715 90.20315224 232.65458089 91.69505194 234.61865234 93.703125 C235.24384766 94.33476563 235.86904297 94.96640625 236.51318359 95.6171875 C249.12290177 109.15061586 260.77107709 123.53635779 270.80615234 139.078125 C271.47227539 140.10728027 271.47227539 140.10728027 272.15185547 141.15722656 C292.17621398 172.37505742 306.37213291 206.03417993 314.80615234 242.140625 C315.0969165 243.38239502 315.38768066 244.62416504 315.68725586 245.90356445 C320.16576283 265.81210753 320.16576283 265.81210753 315.80615234 273.078125 C311.95687557 276.73493793 308.91390362 278.202093 303.63812751 278.2057755 C302.78290658 278.20879147 301.92768565 278.21180744 301.04654893 278.2149148 C300.10476821 278.21314533 299.16298749 278.21137586 298.19266796 278.20955276 C297.18979841 278.2116054 296.18692886 278.21365803 295.15366933 278.21577287 C291.76016424 278.22147146 288.36669937 278.21998211 284.97319031 278.21856689 C282.5288702 278.22114889 280.08455052 278.22416158 277.64023143 278.2275703 C271.60577523 278.23481282 265.57133272 278.23734386 259.53687352 278.23789935 C252.3116469 278.238812 245.08642849 278.24547656 237.8612054 278.25224617 C220.39703211 278.26831826 202.93285969 278.27421066 185.46868033 278.27899492 C177.21026135 278.28132949 168.95184306 278.28493197 160.69342462 278.2886903 C132.43489532 278.30152638 104.17636642 278.31224592 75.91783428 278.3156929 C74.14341131 278.31591454 72.36898835 278.31613632 70.59456538 278.31635825 C68.81581073 278.3165789 67.03705608 278.31679938 65.25830144 278.3170197 C61.6896977 278.31746226 58.12109397 278.31790937 54.55249023 278.31835938 C53.22527748 278.31852346 53.22527748 278.31852346 51.87125234 278.31869086 C23.17165554 278.3223227 -5.52791603 278.33824725 -34.22750317 278.36154974 C-64.5565986 278.38613037 -94.88567959 278.3998649 -125.21478528 278.40106082 C-128.54234676 278.40123228 -131.86990823 278.40144771 -135.19746971 278.40169525 C-136.42651601 278.4017789 -136.42651601 278.4017789 -137.68039152 278.40186425 C-150.88175383 278.40301619 -164.0830903 278.41405025 -177.28444388 278.42858231 C-190.54632685 278.44292889 -203.80817658 278.44619471 -217.07006518 278.43814233 C-224.95397413 278.43367748 -232.83777602 278.43758071 -240.72167096 278.45338084 C-246.60101045 278.4642431 -252.48026891 278.45951679 -258.3596107 278.44860896 C-260.74386648 278.44663898 -263.12813286 278.44978983 -265.51237372 278.45845333 C-268.7427179 278.46945229 -271.97251167 278.46212427 -275.20283985 278.4500618 C-276.13759707 278.45765699 -277.0723543 278.46525218 -278.03543749 278.47307754 C-283.16954023 278.43143191 -286.76699912 277.9741411 -291.19384766 275.078125 C-294.62737031 270.99501698 -296.08030975 267.3591239 -296.19384766 262.078125 C-295.78613628 258.11189667 -295.04118022 254.23533425 -294.25634766 250.328125 C-294.03035889 249.18996338 -293.80437012 248.05180176 -293.5715332 246.87915039 C-289.07302322 225.13461375 -281.96049799 204.44704921 -273.19384766 184.078125 C-272.86449219 183.30355957 -272.53513672 182.52899414 -272.19580078 181.73095703 C-261.30313963 156.3934297 -245.83781493 132.27828136 -227.56347656 111.64208984 C-226.10770733 109.97976226 -224.68562781 108.29265801 -223.26806641 106.59765625 C-214.3326751 95.94235477 -204.83477586 86.05519897 -194.19384766 77.078125 C-192.85193359 75.9025 -192.85193359 75.9025 -191.48291016 74.703125 C-176.22580972 61.41181478 -159.84171125 49.9627591 -142.19384766 40.078125 C-141.29682129 39.57539062 -140.39979492 39.07265625 -139.47558594 38.5546875 C-97.02430764 15.03448549 -48.58629756 1.18847387 0 0 Z " fill="#002E6C" transform="translate(589.19384765625,687.921875)"/>
<path d="M0 0 C66.33 0 132.66 0 201 0 C204.24231782 8.64618086 204.24231782 8.64618086 205.7265625 12.77734375 C211.65149874 29.00045803 218.82508842 43.97461914 229 58 C229.38849121 58.53657227 229.77698242 59.07314453 230.17724609 59.62597656 C239.93285496 72.94827596 251.55257841 85.35162577 265 95 C266.05832031 95.763125 267.11664063 96.52625 268.20703125 97.3125 C306.29063564 124.05609953 353.227045 135.03536867 399.203125 127.47314453 C429.06782562 121.82243858 458.00052555 109.02528001 481 89 C481.51852539 88.55301758 482.03705078 88.10603516 482.57128906 87.64550781 C507.89428431 65.64823427 524.61413058 38.96038635 535.21313477 7.25390625 C536.06689821 4.80837596 537.0379956 2.40501101 538 0 C604.33 0 670.66 0 739 0 C739 2.31 739 4.62 739 7 C728.28791307 11.56926768 717.44646247 15.81411008 706.60620117 20.06762695 C704.47672705 20.90422365 702.34815811 21.74312775 700.22045898 22.58422852 C697.12675235 23.80717872 694.03051535 25.0234993 690.93359375 26.23828125 C689.98052841 26.61632401 689.02746307 26.99436676 688.04551697 27.38386536 C687.16352127 27.72810043 686.28152557 28.07233551 685.37280273 28.42700195 C684.59847397 28.731689 683.8241452 29.03637604 683.02635193 29.35029602 C681 30 681 30 678 30 C677.88462891 30.61673584 677.76925781 31.23347168 677.65039062 31.86889648 C671.91706151 61.62612097 659.60778147 93.5557471 642.265625 118.4765625 C640.63869765 121.72037444 641.00608892 122.51927452 642 126 C643.25825324 129.13171885 644.66392812 132.19001143 646.078125 135.25390625 C646.48657654 136.15060532 646.89502808 137.04730438 647.31585693 137.97117615 C648.62228846 140.83724157 649.93574782 143.70001344 651.25 146.5625 C654.1637728 152.92925104 657.06980526 159.2993668 659.95092773 165.68096924 C660.60629278 167.12968898 661.26478902 168.57700112 661.92797852 170.02215576 C662.68895562 171.68465732 663.43138806 173.3556151 664.171875 175.02734375 C664.75340332 176.32079712 664.75340332 176.32079712 665.34667969 177.64038086 C666.19228766 180.69449187 666.01674186 181.96854902 665 185 C663.12421502 187.48360128 660.94351098 189.63364881 658.73950195 191.82568359 C658.08575089 192.49126282 657.43199982 193.15684204 656.75843811 193.84259033 C654.59546223 196.03845175 652.41783464 198.21903773 650.23828125 200.3984375 C648.72913589 201.91789481 647.22036716 203.43772627 645.71195984 204.95791626 C642.54872985 208.140582 639.3776001 211.31512754 636.20141602 214.48486328 C632.12815588 218.55211822 628.08061375 222.64395458 624.03927326 226.74289513 C620.93122562 229.8878645 617.80734811 233.01672772 614.6787014 236.14119339 C613.17919041 237.64358234 611.68529636 239.15159893 610.19713783 240.66523361 C608.11681436 242.77740671 606.01556924 244.86628236 603.9074707 246.95068359 C603.29476318 247.58227386 602.68205566 248.21386414 602.05078125 248.86459351 C597.79781738 253.00440787 597.79781738 253.00440787 593.8321991 252.98249817 C588.87371071 251.26238401 588.87371071 251.26238401 586.77734375 250.3293457 C586.00213379 249.98841385 585.22692383 249.64748199 584.42822266 249.29621887 C583.60628418 248.92647446 582.7843457 248.55673004 581.9375 248.17578125 C581.06915527 247.79189743 580.20081055 247.40801361 579.30615234 247.01249695 C576.53452228 245.78561036 573.76719102 244.5493615 571 243.3125 C569.17086204 242.49999984 567.3414374 241.68814474 565.51171875 240.87695312 C564.6178093 240.48035492 563.72389984 240.08375671 562.80290222 239.67514038 C561.02677701 238.88795316 559.25018012 238.10182927 557.47309875 237.31680298 C553.54578404 235.58081956 549.62646748 233.83372814 545.73120117 232.02685547 C544.48098251 231.45925376 543.23074026 230.89170403 541.98046875 230.32421875 C540.92496826 229.83397217 539.86946777 229.34372559 538.78198242 228.83862305 C535.57269796 227.87119065 534.30719398 228.0986611 531.3125 229.5 C529.52963139 230.64819046 527.76078996 231.81822992 526 233 C523.17978652 234.60630189 520.31103719 236.11660799 517.4375 237.625 C516.63046631 238.05151855 515.82343262 238.47803711 514.99194336 238.91748047 C465.06814681 265 465.06814681 265 443 265 C442.87011185 265.72725281 442.74022369 266.45450562 442.60639954 267.20379639 C442.03219152 269.85155986 441.26627668 272.21296097 440.29760742 274.73925781 C439.95022018 275.65080627 439.60283295 276.56235474 439.24491882 277.50152588 C438.8689003 278.47555359 438.49288177 279.4495813 438.10546875 280.453125 C437.71684158 281.46791931 437.32821442 282.48271362 436.92781067 283.52825928 C436.10506451 285.67403052 435.28036617 287.81905413 434.45385742 289.96337891 C433.1981166 293.22244637 431.94915001 296.48404702 430.70117188 299.74609375 C429.89884078 301.83609236 429.09611886 303.92594099 428.29296875 306.015625 C427.92302292 306.98155579 427.55307709 307.94748657 427.17192078 308.94268799 C426.6366552 310.32892365 426.6366552 310.32892365 426.09057617 311.74316406 C425.78270676 312.54304749 425.47483734 313.34293091 425.15763855 314.16705322 C423.53004988 318.15005127 421.74749627 322.06813338 420 326 C386.67 326 353.34 326 319 326 C307.18933824 296.47334559 307.18933824 296.47334559 302.69140625 284.69750977 C301.84237771 282.47718843 300.98760591 280.25912316 300.1328125 278.04101562 C299.58559874 276.61210885 299.03870913 275.18307789 298.4921875 273.75390625 C298.11270462 272.7714669 298.11270462 272.7714669 297.72555542 271.7691803 C296 267.22914559 296 267.22914559 296 265 C295.09882446 264.83455688 295.09882446 264.83455688 294.17944336 264.66577148 C265.75657538 259.24260809 239.04820547 247.22716198 213.7746582 233.47290039 C212.859021 232.98684326 211.94338379 232.50078613 211 232 C210.41036469 231.60953995 209.82072937 231.2190799 209.21322632 230.81678772 C206.34433126 229.06795838 204.23522552 227.8272983 200.82392883 228.304245 C198.39106854 229.15384601 196.12909884 230.17198683 193.8125 231.30078125 C192.52134277 231.88366158 192.52134277 231.88366158 191.20410156 232.47831726 C188.45495102 233.72731961 185.72818401 235.01843573 183 236.3125 C181.19795187 237.14158472 179.39457387 237.96778532 177.58984375 238.79101562 C174.06035075 240.40610178 170.53548962 242.03053787 167.015625 243.66650391 C166.17708984 244.05614319 165.33855469 244.44578247 164.47460938 244.847229 C162.84975487 245.60415055 161.22601702 246.36347474 159.60351562 247.12542725 C157.4080478 248.15257761 155.20535224 249.16225686 153 250.16796875 C152.3596582 250.47285721 151.71931641 250.77774567 151.05957031 251.09187317 C147.18561855 252.8368697 145.01386941 253.41425221 141 252 C138.5195361 250.11957673 136.36664442 247.94380581 134.17431641 245.73950195 C133.17594757 244.75887535 133.17594757 244.75887535 132.15740967 243.75843811 C129.96154825 241.59546223 127.78096227 239.41783464 125.6015625 237.23828125 C124.08210519 235.72913589 122.56227373 234.22036716 121.04208374 232.71195984 C117.859418 229.54872985 114.68487246 226.3776001 111.51513672 223.20141602 C107.44788178 219.12815588 103.35604542 215.08061375 99.25710487 211.03927326 C96.1121355 207.93122562 92.98327228 204.80734811 89.85880661 201.6787014 C88.35641766 200.17919041 86.84840107 198.68529636 85.33476639 197.19713783 C83.22259329 195.11681436 81.13371764 193.01556924 79.04931641 190.9074707 C78.41772614 190.29476318 77.78613586 189.68205566 77.13540649 189.05078125 C72.99559075 184.79781597 72.99559075 184.79781597 73.01750183 180.83319092 C74.74675254 175.84661937 74.74675254 175.84661937 75.6706543 173.76147461 C76.01158615 172.98303696 76.35251801 172.2045993 76.70378113 171.40257263 C77.07352554 170.5774971 77.44326996 169.75242157 77.82421875 168.90234375 C78.40004448 167.59626915 78.40004448 167.59626915 78.98750305 166.2638092 C80.21443099 163.48548742 81.45092145 160.71153778 82.6875 157.9375 C83.49995509 156.09987724 84.31180982 154.26198892 85.12304688 152.42382812 C85.91889281 150.62483272 86.71511175 148.82600228 87.51171875 147.02734375 C87.89866913 146.15330902 88.28561951 145.27927429 88.68429565 144.37875366 C90.39254651 140.53870551 92.11911955 136.71472373 93.95556641 132.93408203 C94.791604 131.20520752 94.791604 131.20520752 95.64453125 129.44140625 C96.12897705 128.47017822 96.61342285 127.4989502 97.11254883 126.49829102 C98.11354555 123.68035443 98.11928877 122.72578931 97 120 C96.23076792 118.4420332 95.41156504 116.90827446 94.55859375 115.39453125 C94.06149902 114.50290283 93.5644043 113.61127441 93.05224609 112.69262695 C92.25294678 111.26696411 92.25294678 111.26696411 91.4375 109.8125 C61 54.54062408 61 54.54062408 61 30 C59.93576813 29.81516052 59.93576813 29.81516052 58.85003662 29.62658691 C55.89275811 28.97642263 53.22725981 28.05478506 50.39941406 26.97460938 C49.30187805 26.55747681 48.20434204 26.14034424 47.07354736 25.71057129 C45.89943298 25.25952026 44.7253186 24.80846924 43.515625 24.34375 C42.30428894 23.88141968 41.09295288 23.41908936 39.84490967 22.94274902 C37.28870873 21.96677247 34.7335714 20.9880768 32.17919922 20.00732422 C28.90001464 18.74844 25.61858902 17.49552369 22.33639908 16.24449921 C19.2075664 15.05121951 16.08039573 13.85361739 12.953125 12.65625 C11.7709137 12.20519897 10.58870239 11.75414795 9.3706665 11.28942871 C8.28573914 10.87229614 7.20081177 10.45516357 6.08300781 10.02539062 C5.12324036 9.6575647 4.1634729 9.28973877 3.17462158 8.9107666 C1 8 1 8 0 7 C0 4.69 0 2.38 0 0 Z " fill="#002E6C" transform="translate(231,1009)"/>
<path d="M0 0 C1.57974609 0.02513672 1.57974609 0.02513672 3.19140625 0.05078125 C40.02346375 1.60207128 75.35722328 18.88595075 102.25 43.4375 C103.11020752 44.21806763 103.11020752 44.21806763 103.98779297 45.0144043 C105.3670461 46.29943458 106.68940585 47.64501476 108 49 C108 49.66 108 50.32 108 51 C108.66 51 109.32 51 110 51 C134.85684214 78.3068893 149.60776775 114.16912874 151 151 C151.02723145 151.64984863 151.05446289 152.29969727 151.08251953 152.96923828 C152.60845234 194.18861836 137.44218197 232.76299895 110.3125 263.4375 C108.88308413 264.96593402 107.44596662 266.48721422 106 268 C105.03126953 269.06347656 105.03126953 269.06347656 104.04296875 270.1484375 C77.70428527 298.0483049 38.58599295 313.74644551 0.609375 315.3203125 C-41.91833747 316.38790218 -81.55354008 302.80641773 -113 274 C-113.84860596 273.2272876 -113.84860596 273.2272876 -114.71435547 272.43896484 C-132.99885972 255.57233846 -146.75098484 234.449651 -155 211 C-155.22671387 210.36094727 -155.45342773 209.72189453 -155.68701172 209.06347656 C-169.31820331 169.96988069 -166.56109522 126.73025295 -149.13427734 89.32275391 C-131.08829242 52.36849206 -98.66419968 22.87938063 -59.96899414 8.87841797 C-40.48234119 2.27954952 -20.53097054 -0.47640926 0 0 Z " fill="#002E6C" transform="translate(607,365)"/>
<path d="M0 0 C0.72896484 0.3623877 1.45792969 0.72477539 2.20898438 1.09814453 C50.70760157 25.4002149 87.21695572 68.07415553 104.4375 119.5 C112.95042458 145.7646498 112.95042458 145.7646498 109.8125 154.1875 C107.20995401 158.22593343 104.55880664 160.48039779 100 162 C97.0750303 162.09420322 94.17418975 162.13026434 91.2492218 162.12025452 C89.89167928 162.12153615 89.89167928 162.12153615 88.50671166 162.12284368 C85.46189271 162.12449609 82.41712836 162.11898099 79.37231445 162.11352539 C77.19455975 162.11324344 75.01680494 162.1134014 72.83905029 162.1139679 C66.91585484 162.11425557 60.99267952 162.10836368 55.06948876 162.10139394 C48.88350033 162.09515541 42.69751148 162.0945562 36.51152039 162.09336853 C24.79247225 162.09025669 13.07343341 162.08204528 1.35438937 162.07201904 C-11.98520759 162.06077332 -25.32480459 162.0553463 -38.66440523 162.05032361 C-66.10960864 162.03986256 -93.5548038 162.02226596 -121 162 C-120.92164917 160.83902298 -120.84329834 159.67804596 -120.76257324 158.48188782 C-120.66374846 156.94016993 -120.56516932 155.39843627 -120.46679688 153.85668945 C-120.38857697 152.712187 -120.38857697 152.712187 -120.30877686 151.54456329 C-119.93468602 145.56443966 -120.30136678 140.06874891 -121.5 134.1875 C-121.68159668 133.23504395 -121.86319336 132.28258789 -122.05029297 131.30126953 C-122.66374604 128.19193883 -123.3225573 125.09599865 -124 122 C-124.23750977 120.91251465 -124.47501953 119.8250293 -124.71972656 118.70458984 C-133.65231983 78.80759422 -148.84701815 40.12949724 -171.29272461 5.86181641 C-172.01987671 4.7487915 -172.01987671 4.7487915 -172.76171875 3.61328125 C-173.19444092 2.96141846 -173.62716309 2.30955566 -174.07299805 1.63793945 C-175 0 -175 0 -175 -2 C-155.17204065 -10.11095583 -136.26784884 -16.23871792 -115 -19 C-114.34 -19.09498779 -113.68 -19.18997559 -113 -19.2878418 C-74.7984013 -24.29322613 -34.30897228 -17.24291132 0 0 Z " fill="#002E6C" transform="translate(1070,804)"/>
<path d="M0 0 C1.10625732 0.00373123 1.10625732 0.00373123 2.23486328 0.00753784 C26.64060666 0.13391254 55.81138394 2.11142085 77.5625 14.3125 C77.8925 15.3025 78.2225 16.2925 78.5625 17.3125 C77.11328125 19.9296875 77.11328125 19.9296875 74.875 23.1875 C53.54050887 55.19773988 37.95515251 91.02494038 28.5625 128.3125 C28.1308252 130.02155518 28.1308252 130.02155518 27.69042969 131.76513672 C26.79310474 135.4182485 25.95026488 139.07998127 25.125 142.75 C24.86549561 143.83087891 24.60599121 144.91175781 24.33862305 146.02539062 C22.60698807 154.18855737 22.42978856 161.98520191 22.49584961 170.30883789 C22.50066093 171.46539131 22.50547226 172.62194473 22.51042938 173.81354523 C22.52291057 176.64659236 22.54039547 179.47951435 22.5625 182.3125 C-4.69717029 182.40592645 -31.9568166 182.47647101 -59.21661472 182.51974869 C-71.87371229 182.54037704 -84.53071041 182.56850304 -97.18774414 182.61425781 C-108.21915008 182.65411699 -119.250484 182.67993082 -130.28195995 182.68885398 C-136.12347926 182.69407023 -141.96479251 182.70633636 -147.8062458 182.73542023 C-153.30472165 182.7625746 -158.80290657 182.77094484 -164.3014431 182.76493073 C-166.3190532 182.76603094 -168.33667305 182.77398455 -170.35422516 182.7893219 C-173.11094211 182.80924999 -175.86656349 182.80442881 -178.62330627 182.79351807 C-179.81837015 182.81099512 -179.81837015 182.81099512 -181.03757674 182.82882524 C-186.60802477 182.76931205 -189.8292035 181.46681884 -194.4375 178.3125 C-198.39870365 173.95517598 -198.68629176 170.07617572 -198.4375 164.3125 C-197.97008209 161.659216 -197.45419649 159.10833465 -196.8125 156.5 C-196.63356201 155.76499268 -196.45462402 155.02998535 -196.27026367 154.27270508 C-182.60801772 99.89454605 -147.45732874 55.02658046 -99.63427734 26.2265625 C-81.56172376 15.66977029 -61.2908614 8.51940853 -40.875 4.125 C-40.15626709 3.96999023 -39.43753418 3.81498047 -38.69702148 3.65527344 C-25.79187412 1.02700382 -13.13083484 -0.07143622 0 0 Z " fill="#002E6C" transform="translate(229.4375,783.6875)"/>
<path d="M0 0 C1.68996094 0.51046875 1.68996094 0.51046875 3.4140625 1.03125 C18.51927185 5.98817014 30.98294761 13.72635418 43 24 C43.68578125 24.58265625 44.3715625 25.1653125 45.078125 25.765625 C62.44528936 41.83430978 73.5108636 67.6977784 75.22119141 91.015625 C76.30695219 119.32857004 69.72460312 146.6043785 50.0625 167.875 C48.07569183 169.9524729 46.04940355 171.98443095 44 174 C43.1646875 174.83402344 42.329375 175.66804687 41.46875 176.52734375 C21.83686385 195.1712616 -5.08601101 203.78047483 -31.8046875 203.18359375 C-59.16132161 202.18030945 -83.75406849 190.21468812 -103 171 C-123.83800997 148.25183912 -131.990047 120.94860444 -131.13183594 90.63574219 C-130.07612736 69.52939069 -120.68926984 50.48296906 -108 34 C-107.48824219 33.33226562 -106.97648437 32.66453125 -106.44921875 31.9765625 C-105.35661911 30.60356118 -104.18726177 29.29202016 -103 28 C-102.34 28 -101.68 28 -101 28 C-100.67 27.01 -100.34 26.02 -100 25 C-74.65051949 0.4729263 -34.04718731 -10.85308798 0 0 Z " fill="#002E6C" transform="translate(259,573)"/>
<path d="M0 0 C22.53726083 18.99621821 36.94671892 43.5415865 39.53125 73.171875 C41.64195235 101.82871843 32.73965389 128.0699303 14.31640625 150.18359375 C-1.10883298 168.02942648 -22.78559152 180.33938503 -46.1875 184.1875 C-46.83074219 184.29835938 -47.47398437 184.40921875 -48.13671875 184.5234375 C-74.72848884 188.27161081 -102.30691183 181.71275411 -124.1875 166.125 C-134.52419005 158.01616416 -144.46684202 148.54940445 -151.1875 137.1875 C-151.85265625 136.06988281 -152.5178125 134.95226562 -153.203125 133.80078125 C-158.25218216 124.99531907 -161.73811512 116.04799655 -164.1875 106.1875 C-164.37296387 105.46393311 -164.55842773 104.74036621 -164.74951172 103.99487305 C-170.69802654 78.15518266 -165.89573645 49.94615647 -151.984375 27.515625 C-136.05581556 3.18226817 -112.447609 -13.28813575 -84.1875 -19.8125 C-54.74657798 -25.50609324 -23.66832155 -18.22647124 0 0 Z " fill="#002E6C" transform="translate(1044.1875,590.8125)"/>
<path d="M0 0 C14.12727247 12.41423494 21.79329296 28.33356993 23.8125 46.9375 C24.42230669 57.54559562 22.96486662 67.645109 18.609375 77.35546875 C17.79135141 79.61438473 17.79135141 79.61438473 18.640625 81.80078125 C19.86014419 83.73899139 19.86014419 83.73899139 21.85775757 84.48820496 C24.43817803 85.85752206 25.75075666 87.40412039 27.63525391 89.63793945 C34.1721711 97.0776893 41.26649111 103.95254575 48.30515671 110.91362572 C50.88102114 113.46258143 53.4522575 116.01612043 56.02212524 118.57112122 C63.32186196 125.82835518 70.62440327 133.08269459 77.94287109 140.32104492 C82.43575935 144.76540822 86.91881958 149.21948076 91.39561844 153.68004799 C93.09761025 155.37215535 94.80324837 157.06060345 96.5126152 158.74526024 C98.89841611 161.09729824 101.27149521 163.46150772 103.64208984 165.82885742 C104.6987384 166.86157776 104.6987384 166.86157776 105.7767334 167.91516113 C106.74786575 168.89237373 106.74786575 168.89237373 107.73861694 169.889328 C108.57973306 170.72296513 108.57973306 170.72296513 109.43784142 171.57344341 C113.46799551 176.86617698 114.44270251 182.16099155 114.39440918 188.65058899 C114.40050028 189.42947281 114.40659139 190.20835662 114.41286707 191.01084298 C114.42943781 193.60544254 114.42472981 196.19954814 114.41992188 198.79418945 C114.42726571 200.66075142 114.43585286 202.52730884 114.44558716 204.39385986 C114.46778022 209.45391309 114.47073489 214.51380335 114.46883965 219.57389855 C114.46871983 223.80335054 114.47728872 228.03276815 114.48561716 232.26221055 C114.50484381 242.24408498 114.50773795 252.22587579 114.50097656 262.20776367 C114.49433819 272.49216872 114.51719376 282.7762149 114.55429029 293.06054717 C114.58501903 301.90155675 114.59634381 310.74245107 114.59245348 319.58351296 C114.59038904 324.85886363 114.595818 330.13393508 114.62034607 335.409235 C114.64266264 340.37278336 114.64069447 345.33574976 114.62041855 350.29930115 C114.61701705 352.1156885 114.62206037 353.93211541 114.63640213 355.74844933 C114.71555747 366.52085338 114.57762112 375.90059938 106.625 384.0625 C99.61820702 388.23321011 94.19638767 389.65398373 86 388.625 C79.48134179 386.81615767 74.56810854 382.28575598 71 376.625 C69.30357002 371.70772004 68.83022893 367.85866954 69.27331543 362.69132996 C69.35158535 361.69733832 69.35158535 361.69733832 69.43143648 360.68326604 C69.54548133 359.23976153 69.6646894 357.7966576 69.78849304 356.3539573 C70.13053137 352.32062407 70.4203684 348.28345001 70.71424866 344.24636841 C70.809291 342.95346019 70.809291 342.95346019 70.9062534 341.63443261 C72.22451731 323.38477903 72.93999149 305.09932842 73.5 286.8125 C73.54675487 285.31233219 73.54675487 285.31233219 73.59445429 283.78185797 C75.97518377 216.03126953 75.97518377 216.03126953 44.23440552 158.68861389 C38.79452215 152.98672516 32.94513024 147.78037805 26.9375 142.6875 C25.95768158 141.85629513 24.97786316 141.02509026 23.96835327 140.16869736 C11.91094948 130.07198946 -0.65575449 120.9393679 -14 112.625 C-14.86882812 112.90214844 -15.73765625 113.17929688 -16.6328125 113.46484375 C-17.78523438 113.82707031 -18.93765625 114.18929687 -20.125 114.5625 C-21.26195312 114.92214844 -22.39890625 115.28179687 -23.5703125 115.65234375 C-41.79439889 120.82067805 -60.80796109 118.35544548 -77.3125 109.4375 C-92.55521693 99.812695 -103.13995074 86.03170362 -108 68.625 C-112.01119633 49.7582675 -109.53620718 31.38514509 -99.25 14.9453125 C-88.7763646 -0.90246973 -72.96385794 -10.81235923 -54.4375 -14.6875 C-34.37430868 -17.69842626 -15.87732514 -12.36852401 0 0 Z " fill="#002E6C" transform="translate(261,140.375)"/>
<path d="M0 0 C14.57585876 12.60483279 22.56388704 28.62602211 24.375 47.8125 C25.31310512 66.16112482 19.4557862 82.97764781 7.4140625 96.90234375 C-4.37775177 109.41658143 -19.37926864 117.44513255 -36.72265625 118.33984375 C-49.18166554 118.69121153 -59.74455377 116.9512023 -71.5625 113 C-86.02503696 122.01113914 -99.50542436 132.03873697 -112.5 143.0625 C-113.47352039 143.88780968 -114.44704079 144.71311935 -115.4500618 145.56343842 C-142.08754788 168.60738211 -155.91798287 191.91945713 -158.53050232 227.3478241 C-159.77768099 247.271108 -159.63700276 267.18325513 -159 287.125 C-158.96829381 288.12789896 -158.93658763 289.13079793 -158.90392065 290.16408777 C-158.31417636 308.29520623 -157.51806641 326.41688195 -156.16345215 344.5080719 C-156.1018966 345.34960369 -156.04034105 346.19113548 -155.97692019 347.05816823 C-155.68894278 350.9782258 -155.38335887 354.89489118 -155.03729153 358.81025791 C-154.34662331 367.26191534 -154.40802909 373.15117219 -159.140625 380.42578125 C-163.56417918 385.41778282 -167.25476952 388.48281047 -174.1328125 389.30859375 C-181.29297407 389.63768196 -187.59122643 388.44507982 -193.125 383.64453125 C-198.41052075 377.77697398 -200.0144747 371.63478982 -199.95018005 363.96095276 C-199.95825836 362.79051034 -199.95825836 362.79051034 -199.96649987 361.59642261 C-199.98074016 358.99714264 -199.97368559 356.39837476 -199.96655273 353.79907227 C-199.97225835 351.92926628 -199.97922336 350.05946378 -199.98735046 348.18966675 C-200.00527553 343.12147359 -200.00411472 338.05345363 -199.99840808 332.98523831 C-199.99531537 328.75062915 -200.00140959 324.51605321 -200.00744683 320.28144878 C-200.02148823 310.29006203 -200.01993387 300.29876079 -200.00854492 290.30737305 C-199.99706315 280.00706882 -200.01114131 269.70702495 -200.0379414 259.40675503 C-200.06010703 250.55558807 -200.06673384 241.70450279 -200.06086498 232.85331005 C-200.0574964 227.5702449 -200.0599041 222.28734664 -200.07711601 217.00430489 C-200.09259681 212.03589758 -200.08861689 207.06787564 -200.06981087 202.09948349 C-200.06612819 200.27903631 -200.06922408 198.45856051 -200.07969666 196.63813972 C-200.09293061 194.14699504 -200.08133875 191.65712171 -200.06370544 189.16603088 C-200.07331045 188.45093733 -200.08291546 187.73584377 -200.09281152 186.99908072 C-199.98375944 179.47721987 -196.84405516 173.77181989 -191.58880615 168.54528809 C-190.80920532 167.7601886 -190.02960449 166.97508911 -189.22637939 166.16619873 C-188.38049255 165.33469299 -187.53460571 164.50318726 -186.66308594 163.64648438 C-185.76517334 162.74798767 -184.86726074 161.84949097 -183.94213867 160.92376709 C-181.4967798 158.47726741 -179.03934641 156.04324 -176.57944775 153.61137199 C-174.00444508 151.06148932 -171.44087513 148.50016335 -168.8760376 145.94006348 C-164.02509007 141.1015147 -159.16404318 136.27324726 -154.29922509 131.44864893 C-148.75805413 125.95229247 -143.22832865 120.44448153 -137.69950438 114.93570995 C-126.33313183 103.61107145 -114.95257196 92.30080296 -103.5625 81 C-103.9161412 79.77408646 -104.26978241 78.54817291 -104.63414001 77.28511047 C-105.09743999 75.6554045 -105.56044204 74.0256138 -106.02319336 72.39575195 C-106.25640038 71.59029182 -106.48960739 70.7848317 -106.72988129 69.95496368 C-108.51279424 63.64102831 -109.3227336 57.76421436 -109.125 51.1875 C-109.10840332 50.21321045 -109.09180664 49.2389209 -109.07470703 48.23510742 C-108.83073723 40.64865787 -107.64530742 33.98193456 -104.5625 27 C-103.92634766 25.48599609 -103.92634766 25.48599609 -103.27734375 23.94140625 C-95.48676815 6.90630362 -82.44207486 -3.69391536 -65.5625 -11 C-42.86006762 -19.43233203 -18.93277909 -14.54381666 0 0 Z " fill="#002E6C" transform="translate(1025.5625,140)"/>
<path d="M0 0 C0.79148437 0.63550781 1.58296875 1.27101563 2.3984375 1.92578125 C3.23117187 2.57160156 4.06390625 3.21742187 4.921875 3.8828125 C17.70298384 14.48130121 25.27687033 29.49938986 27.3984375 45.92578125 C28.61723951 65.06696699 24.97267911 82.3907215 12.0234375 97.23828125 C10.50102297 98.81954542 8.95980614 100.38296877 7.3984375 101.92578125 C6.71136719 102.63476562 6.02429688 103.34375 5.31640625 104.07421875 C0.97036916 108.28318232 -3.5001417 111.06441535 -8.90234375 113.6640625 C-9.54836548 113.98072876 -10.19438721 114.29739502 -10.85998535 114.62365723 C-12.43797344 115.39623669 -14.01942048 116.16174456 -15.6015625 116.92578125 C-15.60302906 117.6638545 -15.60449562 118.40192776 -15.60600662 119.16236687 C-15.64311388 137.14989895 -15.70218044 155.13723746 -15.78546524 173.12461662 C-15.82521633 181.82331513 -15.85762874 190.52192368 -15.87255859 199.22070312 C-15.88559554 206.80561133 -15.91261213 214.39032127 -15.95617557 221.9751178 C-15.97874466 225.98849416 -15.99447593 230.00162642 -15.99344635 234.01507187 C-15.99269702 237.79910567 -16.01075591 241.58260081 -16.04273033 245.36649513 C-16.05520025 247.40418893 -16.0481866 249.4419734 -16.04042053 251.47969055 C-16.13181724 259.58482185 -16.67522896 267.58223117 -22.35138321 273.86153984 C-28.44168293 279.50639137 -34.22773524 280.38550581 -42.37109375 280.23828125 C-48.51312183 279.64413101 -52.06353907 277.42962638 -56.4140625 273.17578125 C-61.97653124 264.91154198 -62.04634727 257.40246588 -62.03393555 247.70703125 C-62.04296403 246.27728942 -62.05329391 244.8475553 -62.06481934 243.41783142 C-62.09228815 239.55683731 -62.10165999 235.69599047 -62.10767341 231.83491135 C-62.11708356 227.7923072 -62.14328901 223.74981192 -62.16767883 219.70727539 C-62.21127507 212.06125617 -62.23986418 204.41525816 -62.26300222 196.76915264 C-62.29009084 188.06048468 -62.33400004 179.35192661 -62.37929094 170.64333725 C-62.47203867 152.73754335 -62.54376451 134.83172037 -62.6015625 116.92578125 C-63.56913483 116.45223709 -64.53670715 115.97869293 -65.53359985 115.49079895 C-66.81236994 114.85969714 -68.09104111 114.22839487 -69.36962891 113.59692383 C-70.00626968 113.28600044 -70.64291046 112.97507706 -71.29884338 112.65473175 C-86.03868527 105.35248245 -96.99690916 91.16834314 -102.6015625 75.92578125 C-108.04724079 58.15026532 -106.6978916 40.31534233 -98.8515625 23.55078125 C-89.08570329 5.48761309 -73.85178123 -4.87164507 -54.6015625 -11.07421875 C-36.10667585 -15.14462021 -15.14193003 -11.44220279 0 0 Z " fill="#002E6C" transform="translate(639.6015625,31.07421875)"/>
</svg>
